<svg width="117" height="150" viewBox="0 0 117 150" fill="none" xmlns="http://www.w3.org/2000/svg">
<path d="M13.4143 113.095V46.4954C13.4143 42.4038 16.8703 39.0747 21.118 39.0747H94.8642C99.1119 39.0747 102.568 42.4038 102.568 46.4954V113.095C102.568 117.187 99.1119 120.516 94.8642 120.516H21.118C16.8703 120.516 13.4143 117.188 13.4143 113.095ZM22.1062 44.2521C20.2742 44.2521 18.7884 45.6826 18.7884 47.4481V112.143C18.7884 113.908 20.2734 115.339 22.1062 115.339H93.8752C95.7073 115.339 97.193 113.909 97.193 112.143V47.4481C97.193 45.6833 95.7081 44.2521 93.8752 44.2521H22.1062Z" fill="url(#paint0_linear_21_5)"/>
<path d="M102.568 113.095V46.4954C102.568 44.9747 102.089 43.5606 101.271 42.3823C101.14 42.21 98.7523 43.7632 96.3789 45.3719C96.8796 45.9318 97.1929 46.6507 97.1929 47.4473V112.143C97.1929 118.999 83.8425 120.516 83.8425 120.516H94.864C99.1117 120.516 102.568 117.188 102.568 113.095Z" fill="url(#paint1_linear_21_5)"/>
<path d="M13.7711 44.2647C14.757 41.2603 17.6771 39.0754 21.1178 39.0754H94.864C99.1116 39.0754 102.568 42.4045 102.568 46.4962V58.3281C102.208 58.3185 101.999 57.8111 101.999 56.6425C101.999 48.5287 96.6845 45.4119 95.7907 44.846C95.757 44.8231 95.7247 44.7987 95.6901 44.7773C95.684 44.7728 95.6679 44.7625 95.6648 44.7595C95.6648 44.7595 95.6556 44.7588 95.6541 44.758C95.1396 44.4415 94.5315 44.2521 93.8757 44.2521H22.1068C20.2747 44.2521 18.7889 45.6826 18.7889 47.4481V47.7661L13.7711 44.2647Z" fill="url(#paint2_linear_21_5)"/>
<path d="M21.1178 39.0747H29.2523C21.1017 39.0747 19.2873 44.6197 18.8942 46.6848C18.8565 46.8327 18.8358 46.9851 18.8204 47.1404C18.7951 47.3342 18.7882 47.4473 18.7882 47.4473V112.143C18.7882 113.002 19.1445 113.779 19.718 114.353L15.8804 118.522C14.367 117.166 13.4133 115.238 13.4133 113.095V46.4954C13.4141 42.4038 16.8701 39.0747 21.1178 39.0747Z" fill="url(#paint3_linear_21_5)"/>
<path d="M112.365 144.823H4.63464C4.39277 144.823 4.1939 144.62 4.12095 144.344L1.37671 148.299C2.21442 149.35 3.3654 150 4.63464 150H112.365C114.921 150 117 147.365 117 144.128V136.64C117 141.762 114.733 144.823 112.365 144.823Z" fill="url(#paint4_linear_21_5)"/>
<path d="M66.2321 144.823H4.50949C3.24179 144.823 2.81563 146.286 3.08207 147.951C3.27557 149.162 3.58885 150 4.564 150H58.5007H65.5733L66.2321 144.823Z" fill="url(#paint5_linear_21_5)"/>
<path d="M4.15937 144.453C4.11714 144.354 4.0872 144.248 4.0872 144.128V135.736C4.0872 135.354 4.3329 135.042 4.63466 135.042H5.12531L2.08237 130.84C0.829257 131.892 0 133.693 0 135.735V144.127C0 147.365 2.0793 149.999 4.63466 149.999H14.4077C6.51202 150 4.44347 145.229 4.15937 144.453Z" fill="url(#paint6_linear_21_5)"/>
<path d="M116.534 133.189C115.783 131.226 114.199 129.866 112.365 129.866H4.63466C2.0793 129.866 0 132.499 0 135.737V142.916C0 139.676 1.66313 135.043 4.63466 135.043H112.365C112.668 135.043 112.914 135.354 112.914 135.738V136.027C113.857 135.289 115.179 134.255 116.534 133.189Z" fill="url(#paint7_linear_21_5)"/>
<path d="M112.365 129.866H106.068C109.944 129.866 112.913 131.316 112.913 135.738V144.129C112.913 144.512 112.667 144.823 112.365 144.823C114.732 144.823 116.999 141.763 116.999 136.641V135.738C117 132.5 114.921 129.866 112.365 129.866Z" fill="url(#paint8_linear_21_5)"/>
<path d="M91.4909 26.5904C91.4026 26.222 91.1569 25.9069 90.8306 25.6976L59.5097 5.55366C59.125 5.30588 58.6843 5.18235 58.2435 5.18087V0.000473022C59.7239 0.00195229 61.2043 0.417625 62.4943 1.2475L99.6638 25.1525C100.835 25.9055 101.497 27.2634 101.201 28.5896C100.86 30.111 99.4987 31.1561 97.9131 31.1561H81.9974C91.5577 31.1561 91.818 27.9602 91.4909 26.5904Z" fill="url(#paint9_linear_21_5)"/>
<path d="M53.7402 1.2475L16.4563 25.2265C15.2162 26.0245 14.6734 27.4831 15.1064 28.8581C15.1894 29.1207 15.3122 29.361 15.4535 29.5881L24.967 25.9787L56.7255 5.55291C57.1839 5.25854 57.7206 5.14242 58.2435 5.19641C58.2435 5.19641 61.1897 0.562592 68.9825 5.5433L62.2417 1.23492C59.6556 -0.415944 56.3186 -0.411507 53.7402 1.2475Z" fill="url(#paint10_linear_21_5)"/>
<path d="M91.4909 26.5904C91.4356 26.3603 91.3143 26.1547 91.1546 25.9787H24.9662C24.9662 25.9787 19.9914 24.083 27.9485 17.8353L16.4563 25.2265C15.2162 26.0245 14.6734 27.4831 15.1064 28.8581C15.5395 30.2323 16.8318 31.1561 18.3229 31.1561H81.9974C91.5577 31.1561 91.818 27.9602 91.4909 26.5904Z" fill="url(#paint11_linear_21_5)"/>
<path d="M30.414 120.516H46.051C47.5353 120.516 48.7385 119.357 48.7385 117.927V71.8516C48.7385 71.1312 49.3451 70.5469 50.0929 70.5469H53.6066V65.3694H46.051C44.5668 65.3694 43.3636 66.5285 43.3636 67.9582V115.338H30.3426C28.6749 115.338 27.3619 116.802 27.712 118.467C27.9669 119.679 29.1317 120.516 30.414 120.516Z" fill="url(#paint12_linear_21_5)"/>
<path d="M48.7392 115.338V106.91C48.7392 115.355 43.3644 115.338 43.3644 115.338H30.3434H27.173L26.2677 120.516H30.3434H46.0518C48.7876 120.516 48.9005 118.523 48.7392 115.338Z" fill="url(#paint13_linear_21_5)"/>
<path d="M37.3676 115.338H22.106C21.1662 115.338 20.3216 114.958 19.7181 114.353C19.7173 114.353 13.7712 111.238 13.7712 103.052C13.7712 102.43 13.6445 102.029 13.4141 101.815V113.094C13.4141 117.186 16.8702 120.515 21.1178 120.515H37.3683L37.3676 115.338Z" fill="url(#paint14_linear_21_5)"/>
<path d="M50.0929 70.5476H66.4471C67.195 70.5476 67.8008 71.1319 67.8008 71.8523V93.2389H73.1756V67.9589C73.1756 66.5292 71.9724 65.3702 70.4882 65.3702H46.051C44.5668 65.3702 43.3636 66.5292 43.3636 67.9589V79.6163C43.3644 73.7318 45.4559 70.5476 50.0929 70.5476Z" fill="url(#paint15_linear_21_5)"/>
<path d="M70.489 65.3702H60.0687C64.4215 65.3702 67.8016 67.0602 67.8016 71.8523V143.36C67.8016 146.904 64.3248 150 57.9909 150H70.489C71.9732 150 73.1764 148.841 73.1764 147.411V67.9589C73.1764 66.5292 71.9732 65.3702 70.489 65.3702Z" fill="url(#paint16_linear_21_5)"/>
<defs>
<linearGradient id="paint0_linear_21_5" x1="13.4142" y1="79.7947" x2="102.568" y2="79.7947" gradientUnits="userSpaceOnUse">
<stop stop-color="#223A79"/>
<stop offset="0.115" stop-color="#3662A3"/>
<stop offset="0.3009" stop-color="#5BACD9"/>
<stop offset="1" stop-color="#BDE2F7"/>
</linearGradient>
<linearGradient id="paint1_linear_21_5" x1="83.8425" y1="81.4419" x2="102.568" y2="81.4419" gradientUnits="userSpaceOnUse">
<stop stop-color="#223A79"/>
<stop offset="0.115" stop-color="#3662A3"/>
<stop offset="0.3009" stop-color="#5BACD9"/>
<stop offset="1" stop-color="#BDE2F7"/>
</linearGradient>
<linearGradient id="paint2_linear_21_5" x1="13.771" y1="48.7016" x2="102.568" y2="48.7016" gradientUnits="userSpaceOnUse">
<stop stop-color="#223A79"/>
<stop offset="0.115" stop-color="#3662A3"/>
<stop offset="0.3009" stop-color="#5BACD9"/>
<stop offset="1" stop-color="#BDE2F7"/>
</linearGradient>
<linearGradient id="paint3_linear_21_5" x1="13.4133" y1="78.7977" x2="29.2523" y2="78.7977" gradientUnits="userSpaceOnUse">
<stop stop-color="#223A79"/>
<stop offset="0.115" stop-color="#3662A3"/>
<stop offset="0.3009" stop-color="#5BACD9"/>
<stop offset="1" stop-color="#BDE2F7"/>
</linearGradient>
<linearGradient id="paint4_linear_21_5" x1="1.37661" y1="143.32" x2="117" y2="143.32" gradientUnits="userSpaceOnUse">
<stop stop-color="#223A79"/>
<stop offset="0.115" stop-color="#3662A3"/>
<stop offset="0.3009" stop-color="#5BACD9"/>
<stop offset="1" stop-color="#BDE2F7"/>
</linearGradient>
<linearGradient id="paint5_linear_21_5" x1="3.00617" y1="147.411" x2="66.232" y2="147.411" gradientUnits="userSpaceOnUse">
<stop stop-color="#223A79"/>
<stop offset="0.115" stop-color="#3662A3"/>
<stop offset="0.3009" stop-color="#5BACD9"/>
<stop offset="1" stop-color="#BDE2F7"/>
</linearGradient>
<linearGradient id="paint6_linear_21_5" x1="-1.24586e-05" y1="140.419" x2="14.4077" y2="140.419" gradientUnits="userSpaceOnUse">
<stop stop-color="#223A79"/>
<stop offset="0.115" stop-color="#3662A3"/>
<stop offset="0.3009" stop-color="#5BACD9"/>
<stop offset="1" stop-color="#BDE2F7"/>
</linearGradient>
<linearGradient id="paint7_linear_21_5" x1="-0.000100769" y1="136.391" x2="116.534" y2="136.391" gradientUnits="userSpaceOnUse">
<stop stop-color="#223A79"/>
<stop offset="0.115" stop-color="#3662A3"/>
<stop offset="0.3009" stop-color="#5BACD9"/>
<stop offset="1" stop-color="#BDE2F7"/>
</linearGradient>
<linearGradient id="paint8_linear_21_5" x1="106.068" y1="137.344" x2="116.999" y2="137.344" gradientUnits="userSpaceOnUse">
<stop stop-color="#223A79"/>
<stop offset="0.115" stop-color="#3662A3"/>
<stop offset="0.3009" stop-color="#5BACD9"/>
<stop offset="1" stop-color="#BDE2F7"/>
</linearGradient>
<linearGradient id="paint9_linear_21_5" x1="58.2435" y1="15.5781" x2="101.271" y2="15.5781" gradientUnits="userSpaceOnUse">
<stop stop-color="#223A79"/>
<stop offset="0.115" stop-color="#3662A3"/>
<stop offset="0.3009" stop-color="#5BACD9"/>
<stop offset="1" stop-color="#BDE2F7"/>
</linearGradient>
<linearGradient id="paint10_linear_21_5" x1="14.9591" y1="14.7938" x2="68.9825" y2="14.7938" gradientUnits="userSpaceOnUse">
<stop stop-color="#223A79"/>
<stop offset="0.115" stop-color="#3662A3"/>
<stop offset="0.3009" stop-color="#5BACD9"/>
<stop offset="1" stop-color="#BDE2F7"/>
</linearGradient>
<linearGradient id="paint11_linear_21_5" x1="14.959" y1="24.4956" x2="91.5698" y2="24.4956" gradientUnits="userSpaceOnUse">
<stop stop-color="#223A79"/>
<stop offset="0.115" stop-color="#3662A3"/>
<stop offset="0.3009" stop-color="#5BACD9"/>
<stop offset="1" stop-color="#BDE2F7"/>
</linearGradient>
<linearGradient id="paint12_linear_21_5" x1="27.6551" y1="92.9423" x2="53.6065" y2="92.9423" gradientUnits="userSpaceOnUse">
<stop stop-color="#223A79"/>
<stop offset="0.115" stop-color="#3662A3"/>
<stop offset="0.3009" stop-color="#5BACD9"/>
<stop offset="1" stop-color="#BDE2F7"/>
</linearGradient>
<linearGradient id="paint13_linear_21_5" x1="26.2677" y1="113.713" x2="48.7861" y2="113.713" gradientUnits="userSpaceOnUse">
<stop stop-color="#223A79"/>
<stop offset="0.115" stop-color="#3662A3"/>
<stop offset="0.3009" stop-color="#5BACD9"/>
<stop offset="1" stop-color="#BDE2F7"/>
</linearGradient>
<linearGradient id="paint14_linear_21_5" x1="13.4141" y1="111.165" x2="37.3683" y2="111.165" gradientUnits="userSpaceOnUse">
<stop stop-color="#223A79"/>
<stop offset="0.115" stop-color="#3662A3"/>
<stop offset="0.3009" stop-color="#5BACD9"/>
<stop offset="1" stop-color="#BDE2F7"/>
</linearGradient>
<linearGradient id="paint15_linear_21_5" x1="43.3636" y1="79.3043" x2="73.1756" y2="79.3043" gradientUnits="userSpaceOnUse">
<stop stop-color="#223A79"/>
<stop offset="0.115" stop-color="#3662A3"/>
<stop offset="0.3009" stop-color="#5BACD9"/>
<stop offset="1" stop-color="#BDE2F7"/>
</linearGradient>
<linearGradient id="paint16_linear_21_5" x1="57.9909" y1="107.684" x2="73.1764" y2="107.684" gradientUnits="userSpaceOnUse">
<stop stop-color="#223A79"/>
<stop offset="0.115" stop-color="#3662A3"/>
<stop offset="0.3009" stop-color="#5BACD9"/>
<stop offset="1" stop-color="#BDE2F7"/>
</linearGradient>
</defs>
</svg>
