<svg width="20" height="13" viewBox="0 0 20 13" fill="none" xmlns="http://www.w3.org/2000/svg">
<g clip-path="url(#clip0_2_2)">
<path d="M13.75 5C15.1307 5 16.25 3.88071 16.25 2.5C16.25 1.11929 15.1307 0 13.75 0C12.3693 0 11.25 1.11929 11.25 2.5C11.25 3.88071 12.3693 5 13.75 5Z" fill="#1488CC"/>
<path d="M6.25 5C7.63071 5 8.75 3.88071 8.75 2.5C8.75 1.11929 7.63071 0 6.25 0C4.86929 0 3.75 1.11929 3.75 2.5C3.75 3.88071 4.86929 5 6.25 5Z" fill="#1488CC"/>
<path d="M19.4583 6.25002L13.0833 7.50002H6.95831L0.583313 6.25002L2.37498 2.95835C2.83331 2.16669 3.66665 1.66669 4.58331 1.66669H15.5C16.4166 1.66669 17.25 2.16669 17.7083 2.95835L19.4583 6.25002Z" fill="#1488CC"/>
<path d="M15.8334 12.5C18.1345 12.5 20 10.6345 20 8.33335C20 6.03217 18.1345 4.16669 15.8334 4.16669C13.5322 4.16669 11.6667 6.03217 11.6667 8.33335C11.6667 10.6345 13.5322 12.5 15.8334 12.5Z" fill="#1488CC"/>
<path d="M4.16667 12.5C6.46785 12.5 8.33333 10.6345 8.33333 8.33335C8.33333 6.03217 6.46785 4.16669 4.16667 4.16669C1.86548 4.16669 0 6.03217 0 8.33335C0 10.6345 1.86548 12.5 4.16667 12.5Z" fill="#1488CC"/>
<path d="M10 9.58335C11.1506 9.58335 12.0834 8.65061 12.0834 7.50002C12.0834 6.34943 11.1506 5.41669 10 5.41669C8.84943 5.41669 7.91669 6.34943 7.91669 7.50002C7.91669 8.65061 8.84943 9.58335 10 9.58335Z" fill="#1488CC"/>
<path d="M15.8334 11.25C17.4442 11.25 18.75 9.94418 18.75 8.33335C18.75 6.72252 17.4442 5.41669 15.8334 5.41669C14.2225 5.41669 12.9167 6.72252 12.9167 8.33335C12.9167 9.94418 14.2225 11.25 15.8334 11.25Z" fill="#C1E2F4"/>
<path d="M4.16667 11.25C5.7775 11.25 7.08333 9.94418 7.08333 8.33335C7.08333 6.72252 5.7775 5.41669 4.16667 5.41669C2.55584 5.41669 1.25 6.72252 1.25 8.33335C1.25 9.94418 2.55584 11.25 4.16667 11.25Z" fill="#C1E2F4"/>
</g>
<defs>
<clipPath id="clip0_2_2">
<rect width="20" height="12.5" fill="white"/>
</clipPath>
</defs>
</svg>
